# xmcd
#
# Track frame offsets:
#	150
#	2570
#	20272
#	37252
#	56225
#	74952
#	84702
#	105362
#	124560
#	141472
#	162192
#	179877
#	198642
#
# Disc length: 2791 seconds
#
# Revision: 0
# Processed by: cddbd v1.5.1PL2 Copyright (c) Steve Scherf et al.
# Submitted via: audiograbber 1.82.02
#
DISCID=c30ae50d
DTITLE=Raheem - Tight 2 Def
DYEAR=1996
DGENRE=Rap
TTITLE0=Tight 2 Def
TTITLE1=Start This Shit Off Right
TTITLE2=Head
TTITLE3=Come Clean, Come Clean
TTITLE4=Halter Tops
TTITLE5=Welcome 2 The Blue Flame
TTITLE6=Pay Yo Pussy Bill
TTITLE7=Hotel Motel
TTITLE8=Love
TTITLE9=Shady Business
TTITLE10=Bend Over Show The World
TTITLE11=Thanx 2 The DJ's
TTITLE12=Raheemz Last Wordz Outro
EXTD=Cashflow420.com
EXTT0=
EXTT1=
EXTT2=
EXTT3=
EXTT4=
EXTT5=
EXTT6=
EXTT7=
EXTT8=
EXTT9=
EXTT10=
EXTT11=
EXTT12=
PLAYORDER=
